<?xml version="1.0" standalone="no"?>
<!DOCTYPE svg PUBLIC "-//W3C//DTD SVG 20010904//EN"
 "http://www.w3.org/TR/2001/REC-SVG-20010904/DTD/svg10.dtd">
<svg version="1.0" xmlns="http://www.w3.org/2000/svg"
 width="512.000000pt" height="512.000000pt" viewBox="0 0 512.000000 512.000000"
 preserveAspectRatio="xMidYMid meet">

<g transform="translate(0.000000,512.000000) scale(0.100000,-0.100000)"
fill="#000000" stroke="none">
<path d="M2437 4819 c-582 -56 -1108 -299 -1503 -693 -174 -175 -294 -341
-407 -563 -118 -233 -190 -466 -222 -723 -22 -167 -16 -530 9 -680 108 -622
448 -1151 963 -1497 128 -86 388 -212 538 -262 246 -81 469 -115 750 -115 377
1 678 69 1002 228 294 144 556 352 763 606 153 187 323 496 399 727 174 524
140 1125 -93 1625 -146 316 -399 641 -661 848 -364 289 -788 462 -1220 499
-135 12 -192 12 -318 0z m318 -939 c531 -91 954 -462 1105 -970 117 -397 57
-774 -180 -1129 -189 -282 -477 -483 -813 -567 -139 -35 -368 -43 -512 -20
-612 101 -1087 616 -1146 1242 -28 303 50 600 226 865 152 227 362 398 614
500 240 96 462 121 706 79z"/>
</g>
</svg>
