<?xml version="1.0" standalone="no"?>
<!DOCTYPE svg PUBLIC "-//W3C//DTD SVG 20010904//EN"
 "http://www.w3.org/TR/2001/REC-SVG-20010904/DTD/svg10.dtd">
<svg version="1.0" xmlns="http://www.w3.org/2000/svg"
 width="225.000000pt" height="225.000000pt" viewBox="0 0 225.000000 225.000000"
 preserveAspectRatio="xMidYMid meet">

<g transform="translate(0.000000,225.000000) scale(0.100000,-0.100000)"
fill="#000000" stroke="none">
<path d="M923 2216 c-478 -91 -835 -467 -902 -951 -45 -324 63 -660 291 -901
520 -550 1411 -440 1780 218 57 101 112 264 129 376 18 127 7 325 -25 447
-100 383 -408 690 -794 792 -120 32 -361 41 -479 19z m392 -471 c203 -68 364
-230 428 -430 18 -58 22 -92 22 -205 -1 -122 -4 -142 -28 -206 -44 -116 -75
-164 -166 -254 -134 -133 -276 -192 -461 -192 -194 1 -355 72 -489 219 -215
234 -227 594 -28 852 84 108 237 204 377 236 98 22 245 14 345 -20z"/>
</g>
</svg>
